HIERARCHY
ROOT hip
{
  OFFSET 0 0 0
  CHANNELS 6 Xposition Yposition Zposition Zrotation Yrotation Xrotation
  JOINT abdomen
  {
    OFFSET 0 20.6881 -0.73152
    CHANNELS 3 Zrotation Xrotation Yrotation
    JOINT chest
    {
      OFFSET 0 11.7043 -0.48768
      CHANNELS 3 Zrotation Xrotation Yrotation
      JOINT neck
      {
        OFFSET 0 22.1894 -2.19456
        CHANNELS 3 Zrotation Xrotation Yrotation
        JOINT head
        {
          OFFSET -0.24384 7.07133 1.2192
          CHANNELS 3 Zrotation Xrotation Yrotation
          JOINT leftEye
          {
            OFFSET 4.14528 8.04674 8.04672
            CHANNELS 3 Zrotation Xrotation Yrotation
            End Site
            {
              OFFSET 1 0 0
            }
          }
          JOINT rightEye
          {
            OFFSET -3.6576 8.04674 8.04672
            CHANNELS 3 Zrotation Xrotation Yrotation
            End Site
            {
              OFFSET 1 0 0
            }
          }
        }
      }
      JOINT rCollar
      {
        OFFSET -2.68224 19.2634 -4.8768
        CHANNELS 3 Zrotation Xrotation Yrotation
        JOINT rShldr
        {
          OFFSET -8.77824 -1.95073 1.46304
          CHANNELS 3 Zrotation Xrotation Yrotation
          JOINT rForeArm
          {
            OFFSET -28.1742 -1.7115 0.48768
            CHANNELS 3 Zrotation Xrotation Yrotation
            JOINT rHand
            {
              OFFSET -22.5879 0.773209 7.07136
              CHANNELS 3 Zrotation Xrotation Yrotation
              JOINT rThumb1
              {
                OFFSET -1.2192 -0.487915 3.41376
                CHANNELS 3 Zrotation Xrotation Yrotation
                JOINT rThumb2
                {
                  OFFSET -3.37035 -0.52449 3.41376
                  CHANNELS 3 Zrotation Xrotation Yrotation
                  End Site
                  {
                    OFFSET -1.78271 -1.18214 1.43049
                  }
                }
              }
              JOINT rIndex1
              {
                OFFSET -7.75947 0.938293 5.60832
                CHANNELS 3 Zrotation Xrotation Yrotation
                JOINT rIndex2
                {
                  OFFSET -2.54057 -0.884171 1.56538
                  CHANNELS 3 Zrotation Xrotation Yrotation
                  End Site
                  {
                    OFFSET -1.62519 -0.234802 1.16502
                  }
                }
              }
              JOINT rMid1
              {
                OFFSET -8.24714 1.18213 3.41376
                CHANNELS 3 Zrotation Xrotation Yrotation
                JOINT rMid2
                {
                  OFFSET -3.10165 -0.590103 1.0647
                  CHANNELS 3 Zrotation Xrotation Yrotation
                  End Site
                  {
                    OFFSET -2.48547 -0.328903 0.83742
                  }
                }
              }
              JOINT rRing1
              {
                OFFSET -8.82822 0.546677 1.51678
                CHANNELS 3 Zrotation Xrotation Yrotation
                JOINT rRing2
                {
                  OFFSET -2.60934 -0.819778 -0.0198488
                  CHANNELS 3 Zrotation Xrotation Yrotation
                  End Site
                  {
                    OFFSET -2.33842 -0.294052 0.168128
                  }
                }
              }
              JOINT rPinky1
              {
                OFFSET -8.27202 -0.0477905 -0.4584
                CHANNELS 3 Zrotation Xrotation Yrotation
                JOINT rPinky2
                {
                  OFFSET -1.82734 -0.647385 -0.700984
                  CHANNELS 3 Zrotation Xrotation Yrotation
                  End Site
                  {
                    OFFSET -1.69225 -0.51767 -0.607171
                  }
                }
              }
            }
          }
        }
      }
      JOINT lCollar
      {
        OFFSET 2.68224 19.2634 -4.8768
        CHANNELS 3 Zrotation Xrotation Yrotation
        JOINT lShldr
        {
          OFFSET 8.77824 -1.95073 1.46304
          CHANNELS 3 Zrotation Xrotation Yrotation
          JOINT lForeArm
          {
            OFFSET 28.1742 -1.7115 0.48768
            CHANNELS 3 Zrotation Xrotation Yrotation
            JOINT lHand
            {
              OFFSET 22.5879 0.773209 7.07136
              CHANNELS 3 Zrotation Xrotation Yrotation
              JOINT lThumb1
              {
                OFFSET 1.2192 -0.487915 3.41376
                CHANNELS 3 Zrotation Xrotation Yrotation
                JOINT lThumb2
                {
                  OFFSET 3.37035 -0.52449 3.41376
                  CHANNELS 3 Zrotation Xrotation Yrotation
                  End Site
                  {
                    OFFSET 1.78271 -1.18214 1.43049
                  }
                }
              }
              JOINT lIndex1
              {
                OFFSET 7.75947 0.938293 5.60832
                CHANNELS 3 Zrotation Xrotation Yrotation
                JOINT lIndex2
                {
                  OFFSET 2.54057 -0.884171 1.56538
                  CHANNELS 3 Zrotation Xrotation Yrotation
                  End Site
                  {
                    OFFSET 1.62519 -0.234802 1.16502
                  }
                }
              }
              JOINT lMid1
              {
                OFFSET 8.24714 1.18213 3.41376
                CHANNELS 3 Zrotation Xrotation Yrotation
                JOINT lMid2
                {
                  OFFSET 3.10165 -0.590103 1.0647
                  CHANNELS 3 Zrotation Xrotation Yrotation
                  End Site
                  {
                    OFFSET 2.48547 -0.328903 0.83742
                  }
                }
              }
              JOINT lRing1
              {
                OFFSET 8.82822 0.546677 1.51678
                CHANNELS 3 Zrotation Xrotation Yrotation
                JOINT lRing2
                {
                  OFFSET 2.60934 -0.819778 -0.0198488
                  CHANNELS 3 Zrotation Xrotation Yrotation
                  End Site
                  {
                    OFFSET 2.33842 -0.294052 0.168128
                  }
                }
              }
              JOINT lPinky1
              {
                OFFSET 8.27202 -0.0477905 -0.4584
                CHANNELS 3 Zrotation Xrotation Yrotation
                JOINT lPinky2
                {
                  OFFSET 1.82734 -0.647385 -0.700984
                  CHANNELS 3 Zrotation Xrotation Yrotation
                  End Site
                  {
                    OFFSET 1.69225 -0.51767 -0.607171
                  }
                }
              }
            }
          }
        }
      }
    }
  }
  JOINT rButtock
  {
    OFFSET -8.77824 4.35084 1.2192
    CHANNELS 3 Zrotation Xrotation Yrotation
    JOINT rThigh
    {
      OFFSET 0 -1.70687 -2.19456
      CHANNELS 3 Zrotation Xrotation Yrotation
      JOINT rShin
      {
        OFFSET 0 -36.8199 0.73152
        CHANNELS 3 Zrotation Xrotation Yrotation
        JOINT rFoot
        {
          OFFSET 0.73152 -45.1104 -5.12064
          CHANNELS 3 Zrotation Xrotation Yrotation
          End Site
          {
            OFFSET -1.1221 -3.69964 12.103
          }
        }
      }
    }
  }
  JOINT lButtock
  {
    OFFSET 8.77824 4.35084 1.2192
    CHANNELS 3 Zrotation Xrotation Yrotation
    JOINT lThigh
    {
      OFFSET 0 -1.70687 -2.19456
      CHANNELS 3 Zrotation Xrotation Yrotation
      JOINT lShin
      {
        OFFSET 0 -36.8199 0.73152
        CHANNELS 3 Zrotation Xrotation Yrotation
        JOINT lFoot
        {
          OFFSET -0.73152 -45.1104 -5.12064
          CHANNELS 3 Zrotation Xrotation Yrotation
          End Site
          {
            OFFSET 1.1221 -3.69964 12.103
          }
        }
      }
    }
  }
}
MOTION
Frames:	4
Frame Time:	0.00833333
10.2953 83.0696 228.116 0.0 0.0 0.0 -3.29163 -0.00200198 -0.0897129 -0.910498 0.0108256 -0.157567 4.49638e-14 7.95139e-16 -3.47873e-16 1.35425e-13 3.18055e-15 -1.34335e-15 -0.0 0.0 0.0 -0.0 0.0 0.0 2.27113e-14 1.31229e-16 -9.93923e-17 4.76355e-13 2.67738e-15 -2.38542e-15 8.15867e-12 -2.35003e-12 -1.78111e-13 9.34866e-11 2.95513e-12 -8.26944e-13 2.20507e-10 1.31515e-12 -2.17868e-12 3.80797e-10 2.26774e-12 -3.76021e-12 2.20509e-10 1.31238e-12 -2.18504e-12 7.73091 5.47488 0.417314 2.20506e-10 1.31446e-12 -2.1755e-12 2.90554 0.965183 0.102902 2.20508e-10 1.31436e-12 -2.17868e-12 10.2786 0.731801 0.0259123 2.20499e-10 1.31993e-12 -2.17232e-12 2.22167 -0.733487 -0.20892 2.25137e-14 1.34723e-16 -3.47873e-16 4.72922e-13 2.45375e-15 -3.97569e-15 8.1789e-12 2.53351e-12 -1.59028e-13 9.34979e-11 -1.92861e-12 -8.17403e-13 2.20574e-10 1.31713e-12 -2.1596e-12 3.80939e-10 2.2741e-12 -3.73715e-12 2.20574e-10 1.31436e-12 -2.15005e-12 -7.73091 5.47488 -0.417314 2.20575e-10 1.31615e-12 -2.16278e-12 -2.90554 0.965183 -0.102902 2.20572e-10 1.31695e-12 -2.1596e-12 -10.2786 0.731801 -0.0259123 2.20583e-10 1.32112e-12 -2.16914e-12 -2.22167 -0.733487 0.20892 -2.03217e-16 0.0 -3.88251e-19 -2.14033 -1.93291 0.0183641 -0.00781014 -2.07877 -0.0636562 -0.356334 4.00069 0.117338 2.03217e-16 0.0 3.88251e-19 -2.88059 -9.6772 0.338965 -0.0100217 11.9464 -0.261568 0.458375 -2.28007 -0.00594508
9.58905 79.4938 216.805 -178.03 0.759 -156.0 -3.21092 -6.74792 1.77771 -1.71068 2.14185 0.665223 5.75934 4.46352 5.0453 -2.07792 0.174443 9.15839 -0.0 0.0 0.0 -0.0 0.0 0.0 4.73781e-14 -9.29599e-14 -7.87878e-15 22.2747 -1.22001 -3.35197 -2.94584 -1.15714 4.77942 0.00111607 0.775815 0.109002 2.28028e-10 -8.33434e-10 1.19221e-09 3.98346e-10 -1.44185e-09 2.06077e-09 2.28029e-10 -8.33435e-10 1.1922e-09 7.73091 5.47488 0.417314 2.28027e-10 -8.33434e-10 1.19221e-09 2.90554 0.965183 0.102902 2.28031e-10 -8.33434e-10 1.1922e-09 10.2786 0.731801 0.0259123 2.28021e-10 -8.3343e-10 1.19221e-09 2.22167 -0.733487 -0.20892 4.71867e-14 -9.29591e-14 -8.1591e-15 -19.1118 10.0734 1.13195 4.4462 -2.06736 -6.89271 -0.223655 -10.524 1.39055 -3.12659e-10 -2.02132e-10 -6.86329e-10 -5.21927e-10 -3.32658e-10 -1.19777e-09 -3.12663e-10 -2.02136e-10 -6.8632e-10 -7.73091 5.47488 -0.417314 -3.12658e-10 -2.02134e-10 -6.86332e-10 -2.90554 0.965183 -0.102902 -3.12663e-10 -2.02133e-10 -6.86329e-10 -10.2786 0.731801 -0.0259123 -3.12651e-10 -2.0213e-10 -6.86337e-10 -2.22167 -0.733487 0.20892 -2.03217e-16 0.0 -3.88251e-19 -1.60058 -12.5664 5.25499 0.0177812 7.20403 0.110624 -0.639133 0.555155 -4.46194 2.03217e-16 0.0 3.88251e-19 -3.09214 -17.9437 -2.75891 -0.0267477 16.684 -0.308205 0.537936 -4.74002 1.09138
9.58736 79.4962 216.791 -178.031 0.7246 -156.057 -2.63821 -13.8501 3.83948 -2.62254 4.39185 1.53881 10.9851 9.06571 10.4774 -4.31848 0.355639 18.8334 -0.0 0.0 0.0 -0.0 0.0 0.0 7.51646e-14 -2.029e-13 -1.85087e-14 45.6603 -2.51948 -6.89349 -5.84363 -2.34938 9.82648 -0.00101021 1.62243 0.228022 2.46791e-10 -1.82422e-09 2.56154e-09 4.35925e-10 -3.15594e-09 4.42763e-09 2.46792e-10 -1.82422e-09 2.56152e-09 7.73091 5.47488 0.417314 2.4679e-10 -1.82422e-09 2.56153e-09 2.90554 0.965183 0.102902 2.46795e-10 -1.82422e-09 2.56153e-09 10.2786 0.731801 0.0259123 2.46786e-10 -1.82422e-09 2.56153e-09 2.22167 -0.733487 -0.20892 7.49787e-14 -2.02902e-13 -1.88255e-14 -39.7758 20.6921 2.44545 8.60875 -4.15233 -14.2063 0.133444 -21.6294 3.02579 -9.2017e-10 -4.35674e-10 -1.49002e-09 -1.54992e-09 -7.1684e-10 -2.60006e-09 -9.20179e-10 -4.35679e-10 -1.49001e-09 -7.73091 5.47488 -0.417314 -9.20169e-10 -4.35676e-10 -1.49002e-09 -2.90554 0.965183 -0.102902 -9.20176e-10 -4.35675e-10 -1.49002e-09 -10.2786 0.731801 -0.0259123 -9.20164e-10 -4.35673e-10 -1.49003e-09 -2.22167 -0.733487 0.20892 -2.03217e-16 0.0 -3.88251e-19 1.24461 -23.4896 11.4954 -0.0187726 17.0171 0.306427 -1.53442 -3.04217 -9.31361 2.03217e-16 0.0 3.88251e-19 -4.39468 -26.5804 -6.43366 -0.0352683 21.6915 -0.362495 0.725281 -7.33494 2.26276
9.59268 79.4983 216.78 -178.038 0.6644 -156.107 -1.66026 -20.153 5.83392 -3.49554 6.3991 2.3239 14.8984 12.9707 15.4947 -6.39395 0.470297 27.476 -0.0 0.0 0.0 -0.0 0.0 0.0 9.67116e-14 -2.79142e-13 -2.34376e-14 66.3975 -3.60994 -10.0738 -8.26423 -3.37495 14.3608 -0.00551361 2.32741 0.327245 2.4307e-10 -2.50293e-09 3.58098e-09 4.33443e-10 -4.33008e-09 6.18984e-09 2.43071e-10 -2.50293e-09 3.58096e-09 7.73091 5.47488 0.417314 2.43069e-10 -2.50293e-09 3.58097e-09 2.90554 0.965183 0.102902 2.43076e-10 -2.50293e-09 3.58097e-09 10.2786 0.731801 0.0259123 2.43066e-10 -2.50293e-09 3.58097e-09 2.22167 -0.733487 -0.20892 9.65329e-14 -2.79147e-13 -2.37816e-14 -58.6874 30.1693 3.86811 11.8759 -5.84381 -20.7775 1.08456 -31.491 4.8114 -1.37912e-09 -6.09031e-10 -2.05467e-09 -2.32766e-09 -1.00252e-09 -3.58585e-09 -1.37914e-09 -6.09036e-10 -2.05466e-09 -7.73091 5.47488 -0.417314 -1.37912e-09 -6.09033e-10 -2.05467e-09 -2.90554 0.965183 -0.102902 -1.37913e-09 -6.09032e-10 -2.05467e-09 -10.2786 0.731801 -0.0259123 -1.37912e-09 -6.09032e-10 -2.05467e-09 -2.22167 -0.733487 0.20892 -2.03217e-16 0.0 -3.88251e-19 6.15959 -32.6202 18.3175 -0.114407 25.7688 0.50689 -2.84755 -6.15216 -13.6997 2.03217e-16 0.0 3.88251e-19 -6.68606 -34.0986 -10.3334 -0.03372 26.1589 -0.416549 0.983245 -9.64656 3.32186
